<svg viewBox="0 0 280 336" xmlns="http://www.w3.org/2000/svg" shape-rendering="crispEdges" role="img" aria-label="Pixel-art mascot: a penguin with cow spots and small horns.">
<title>Old Mac, New Linux - 8-bit mascot</title>
<rect x="84" y="0" width="14" height="14" fill="#C7CDD4"/>
<rect x="98" y="0" width="14" height="14" fill="#C7CDD4"/>
<rect x="168" y="0" width="14" height="14" fill="#C7CDD4"/>
<rect x="182" y="0" width="14" height="14" fill="#C7CDD4"/>
<rect x="70" y="14" width="14" height="14" fill="#C7CDD4"/>
<rect x="84" y="14" width="14" height="14" fill="#C7CDD4"/>
<rect x="98" y="14" width="14" height="14" fill="#C7CDD4"/>
<rect x="168" y="14" width="14" height="14" fill="#C7CDD4"/>
<rect x="182" y="14" width="14" height="14" fill="#C7CDD4"/>
<rect x="196" y="14" width="14" height="14" fill="#C7CDD4"/>
<rect x="70" y="28" width="14" height="14" fill="#15181D"/>
<rect x="84" y="28" width="14" height="14" fill="#C7CDD4"/>
<rect x="98" y="28" width="14" height="14" fill="#C7CDD4"/>
<rect x="168" y="28" width="14" height="14" fill="#C7CDD4"/>
<rect x="182" y="28" width="14" height="14" fill="#C7CDD4"/>
<rect x="196" y="28" width="14" height="14" fill="#15181D"/>
<rect x="84" y="42" width="14" height="14" fill="#15181D"/>
<rect x="98" y="42" width="14" height="14" fill="#15181D"/>
<rect x="112" y="42" width="14" height="14" fill="#242A33"/>
<rect x="126" y="42" width="14" height="14" fill="#242A33"/>
<rect x="140" y="42" width="14" height="14" fill="#242A33"/>
<rect x="154" y="42" width="14" height="14" fill="#242A33"/>
<rect x="168" y="42" width="14" height="14" fill="#15181D"/>
<rect x="182" y="42" width="14" height="14" fill="#15181D"/>
<rect x="70" y="56" width="14" height="14" fill="#15181D"/>
<rect x="84" y="56" width="14" height="14" fill="#242A33"/>
<rect x="98" y="56" width="14" height="14" fill="#242A33"/>
<rect x="112" y="56" width="14" height="14" fill="#242A33"/>
<rect x="126" y="56" width="14" height="14" fill="#242A33"/>
<rect x="140" y="56" width="14" height="14" fill="#242A33"/>
<rect x="154" y="56" width="14" height="14" fill="#242A33"/>
<rect x="168" y="56" width="14" height="14" fill="#242A33"/>
<rect x="182" y="56" width="14" height="14" fill="#242A33"/>
<rect x="196" y="56" width="14" height="14" fill="#15181D"/>
<rect x="56" y="70" width="14" height="14" fill="#15181D"/>
<rect x="70" y="70" width="14" height="14" fill="#242A33"/>
<rect x="84" y="70" width="14" height="14" fill="#242A33"/>
<rect x="98" y="70" width="14" height="14" fill="#242A33"/>
<rect x="112" y="70" width="14" height="14" fill="#242A33"/>
<rect x="126" y="70" width="14" height="14" fill="#242A33"/>
<rect x="140" y="70" width="14" height="14" fill="#242A33"/>
<rect x="154" y="70" width="14" height="14" fill="#242A33"/>
<rect x="168" y="70" width="14" height="14" fill="#242A33"/>
<rect x="182" y="70" width="14" height="14" fill="#242A33"/>
<rect x="196" y="70" width="14" height="14" fill="#242A33"/>
<rect x="210" y="70" width="14" height="14" fill="#15181D"/>
<rect x="42" y="84" width="14" height="14" fill="#15181D"/>
<rect x="56" y="84" width="14" height="14" fill="#242A33"/>
<rect x="70" y="84" width="14" height="14" fill="#242A33"/>
<rect x="84" y="84" width="14" height="14" fill="#242A33"/>
<rect x="98" y="84" width="14" height="14" fill="#242A33"/>
<rect x="112" y="84" width="14" height="14" fill="#242A33"/>
<rect x="126" y="84" width="14" height="14" fill="#242A33"/>
<rect x="140" y="84" width="14" height="14" fill="#242A33"/>
<rect x="154" y="84" width="14" height="14" fill="#242A33"/>
<rect x="168" y="84" width="14" height="14" fill="#242A33"/>
<rect x="182" y="84" width="14" height="14" fill="#242A33"/>
<rect x="196" y="84" width="14" height="14" fill="#242A33"/>
<rect x="210" y="84" width="14" height="14" fill="#242A33"/>
<rect x="224" y="84" width="14" height="14" fill="#15181D"/>
<rect x="42" y="98" width="14" height="14" fill="#15181D"/>
<rect x="56" y="98" width="14" height="14" fill="#242A33"/>
<rect x="70" y="98" width="14" height="14" fill="#242A33"/>
<rect x="84" y="98" width="14" height="14" fill="#F2F5F7"/>
<rect x="98" y="98" width="14" height="14" fill="#F2F5F7"/>
<rect x="112" y="98" width="14" height="14" fill="#242A33"/>
<rect x="126" y="98" width="14" height="14" fill="#242A33"/>
<rect x="140" y="98" width="14" height="14" fill="#242A33"/>
<rect x="154" y="98" width="14" height="14" fill="#242A33"/>
<rect x="168" y="98" width="14" height="14" fill="#F2F5F7"/>
<rect x="182" y="98" width="14" height="14" fill="#F2F5F7"/>
<rect x="196" y="98" width="14" height="14" fill="#242A33"/>
<rect x="210" y="98" width="14" height="14" fill="#242A33"/>
<rect x="224" y="98" width="14" height="14" fill="#15181D"/>
<rect x="42" y="112" width="14" height="14" fill="#15181D"/>
<rect x="56" y="112" width="14" height="14" fill="#242A33"/>
<rect x="70" y="112" width="14" height="14" fill="#242A33"/>
<rect x="84" y="112" width="14" height="14" fill="#1B1E25"/>
<rect x="98" y="112" width="14" height="14" fill="#1B1E25"/>
<rect x="112" y="112" width="14" height="14" fill="#242A33"/>
<rect x="126" y="112" width="14" height="14" fill="#242A33"/>
<rect x="140" y="112" width="14" height="14" fill="#242A33"/>
<rect x="154" y="112" width="14" height="14" fill="#242A33"/>
<rect x="168" y="112" width="14" height="14" fill="#1B1E25"/>
<rect x="182" y="112" width="14" height="14" fill="#1B1E25"/>
<rect x="196" y="112" width="14" height="14" fill="#242A33"/>
<rect x="210" y="112" width="14" height="14" fill="#242A33"/>
<rect x="224" y="112" width="14" height="14" fill="#15181D"/>
<rect x="42" y="126" width="14" height="14" fill="#15181D"/>
<rect x="56" y="126" width="14" height="14" fill="#242A33"/>
<rect x="70" y="126" width="14" height="14" fill="#242A33"/>
<rect x="84" y="126" width="14" height="14" fill="#242A33"/>
<rect x="98" y="126" width="14" height="14" fill="#242A33"/>
<rect x="112" y="126" width="14" height="14" fill="#242A33"/>
<rect x="126" y="126" width="14" height="14" fill="#E7A23C"/>
<rect x="140" y="126" width="14" height="14" fill="#E7A23C"/>
<rect x="154" y="126" width="14" height="14" fill="#242A33"/>
<rect x="168" y="126" width="14" height="14" fill="#242A33"/>
<rect x="182" y="126" width="14" height="14" fill="#242A33"/>
<rect x="196" y="126" width="14" height="14" fill="#242A33"/>
<rect x="210" y="126" width="14" height="14" fill="#242A33"/>
<rect x="224" y="126" width="14" height="14" fill="#15181D"/>
<rect x="42" y="140" width="14" height="14" fill="#15181D"/>
<rect x="56" y="140" width="14" height="14" fill="#242A33"/>
<rect x="70" y="140" width="14" height="14" fill="#242A33"/>
<rect x="84" y="140" width="14" height="14" fill="#242A33"/>
<rect x="98" y="140" width="14" height="14" fill="#242A33"/>
<rect x="112" y="140" width="14" height="14" fill="#E7A23C"/>
<rect x="126" y="140" width="14" height="14" fill="#CB8224"/>
<rect x="140" y="140" width="14" height="14" fill="#CB8224"/>
<rect x="154" y="140" width="14" height="14" fill="#E7A23C"/>
<rect x="168" y="140" width="14" height="14" fill="#242A33"/>
<rect x="182" y="140" width="14" height="14" fill="#242A33"/>
<rect x="196" y="140" width="14" height="14" fill="#242A33"/>
<rect x="210" y="140" width="14" height="14" fill="#242A33"/>
<rect x="224" y="140" width="14" height="14" fill="#15181D"/>
<rect x="28" y="154" width="14" height="14" fill="#15181D"/>
<rect x="42" y="154" width="14" height="14" fill="#242A33"/>
<rect x="56" y="154" width="14" height="14" fill="#242A33"/>
<rect x="70" y="154" width="14" height="14" fill="#242A33"/>
<rect x="84" y="154" width="14" height="14" fill="#F2F5F7"/>
<rect x="98" y="154" width="14" height="14" fill="#F2F5F7"/>
<rect x="112" y="154" width="14" height="14" fill="#F2F5F7"/>
<rect x="126" y="154" width="14" height="14" fill="#F2F5F7"/>
<rect x="140" y="154" width="14" height="14" fill="#F2F5F7"/>
<rect x="154" y="154" width="14" height="14" fill="#F2F5F7"/>
<rect x="168" y="154" width="14" height="14" fill="#F2F5F7"/>
<rect x="182" y="154" width="14" height="14" fill="#F2F5F7"/>
<rect x="196" y="154" width="14" height="14" fill="#242A33"/>
<rect x="210" y="154" width="14" height="14" fill="#242A33"/>
<rect x="224" y="154" width="14" height="14" fill="#242A33"/>
<rect x="238" y="154" width="14" height="14" fill="#15181D"/>
<rect x="14" y="168" width="14" height="14" fill="#15181D"/>
<rect x="28" y="168" width="14" height="14" fill="#242A33"/>
<rect x="42" y="168" width="14" height="14" fill="#242A33"/>
<rect x="56" y="168" width="14" height="14" fill="#F2F5F7"/>
<rect x="70" y="168" width="14" height="14" fill="#F2F5F7"/>
<rect x="84" y="168" width="14" height="14" fill="#F2F5F7"/>
<rect x="98" y="168" width="14" height="14" fill="#F2F5F7"/>
<rect x="112" y="168" width="14" height="14" fill="#F2F5F7"/>
<rect x="126" y="168" width="14" height="14" fill="#F2F5F7"/>
<rect x="140" y="168" width="14" height="14" fill="#F2F5F7"/>
<rect x="154" y="168" width="14" height="14" fill="#F2F5F7"/>
<rect x="168" y="168" width="14" height="14" fill="#F2F5F7"/>
<rect x="182" y="168" width="14" height="14" fill="#F2F5F7"/>
<rect x="196" y="168" width="14" height="14" fill="#F2F5F7"/>
<rect x="210" y="168" width="14" height="14" fill="#F2F5F7"/>
<rect x="224" y="168" width="14" height="14" fill="#242A33"/>
<rect x="238" y="168" width="14" height="14" fill="#242A33"/>
<rect x="252" y="168" width="14" height="14" fill="#15181D"/>
<rect x="14" y="182" width="14" height="14" fill="#15181D"/>
<rect x="28" y="182" width="14" height="14" fill="#242A33"/>
<rect x="42" y="182" width="14" height="14" fill="#F2F5F7"/>
<rect x="56" y="182" width="14" height="14" fill="#F2F5F7"/>
<rect x="70" y="182" width="14" height="14" fill="#F2F5F7"/>
<rect x="84" y="182" width="14" height="14" fill="#F2F5F7"/>
<rect x="98" y="182" width="14" height="14" fill="#F2F5F7"/>
<rect x="112" y="182" width="14" height="14" fill="#F2F5F7"/>
<rect x="126" y="182" width="14" height="14" fill="#F2F5F7"/>
<rect x="140" y="182" width="14" height="14" fill="#F2F5F7"/>
<rect x="154" y="182" width="14" height="14" fill="#F2F5F7"/>
<rect x="168" y="182" width="14" height="14" fill="#F2F5F7"/>
<rect x="182" y="182" width="14" height="14" fill="#F2F5F7"/>
<rect x="196" y="182" width="14" height="14" fill="#F2F5F7"/>
<rect x="210" y="182" width="14" height="14" fill="#F2F5F7"/>
<rect x="224" y="182" width="14" height="14" fill="#F2F5F7"/>
<rect x="238" y="182" width="14" height="14" fill="#242A33"/>
<rect x="252" y="182" width="14" height="14" fill="#15181D"/>
<rect x="14" y="196" width="14" height="14" fill="#15181D"/>
<rect x="28" y="196" width="14" height="14" fill="#242A33"/>
<rect x="42" y="196" width="14" height="14" fill="#F2F5F7"/>
<rect x="56" y="196" width="14" height="14" fill="#F2F5F7"/>
<rect x="70" y="196" width="14" height="14" fill="#F2F5F7"/>
<rect x="84" y="196" width="14" height="14" fill="#242A33"/>
<rect x="98" y="196" width="14" height="14" fill="#242A33"/>
<rect x="112" y="196" width="14" height="14" fill="#F2F5F7"/>
<rect x="126" y="196" width="14" height="14" fill="#F2F5F7"/>
<rect x="140" y="196" width="14" height="14" fill="#F2F5F7"/>
<rect x="154" y="196" width="14" height="14" fill="#F2F5F7"/>
<rect x="168" y="196" width="14" height="14" fill="#F2F5F7"/>
<rect x="182" y="196" width="14" height="14" fill="#F2F5F7"/>
<rect x="196" y="196" width="14" height="14" fill="#F2F5F7"/>
<rect x="210" y="196" width="14" height="14" fill="#F2F5F7"/>
<rect x="224" y="196" width="14" height="14" fill="#F2F5F7"/>
<rect x="238" y="196" width="14" height="14" fill="#242A33"/>
<rect x="252" y="196" width="14" height="14" fill="#15181D"/>
<rect x="14" y="210" width="14" height="14" fill="#15181D"/>
<rect x="28" y="210" width="14" height="14" fill="#242A33"/>
<rect x="42" y="210" width="14" height="14" fill="#F2F5F7"/>
<rect x="56" y="210" width="14" height="14" fill="#F2F5F7"/>
<rect x="70" y="210" width="14" height="14" fill="#F2F5F7"/>
<rect x="84" y="210" width="14" height="14" fill="#242A33"/>
<rect x="98" y="210" width="14" height="14" fill="#242A33"/>
<rect x="112" y="210" width="14" height="14" fill="#F2F5F7"/>
<rect x="126" y="210" width="14" height="14" fill="#F2F5F7"/>
<rect x="140" y="210" width="14" height="14" fill="#F2F5F7"/>
<rect x="154" y="210" width="14" height="14" fill="#F2F5F7"/>
<rect x="168" y="210" width="14" height="14" fill="#F2F5F7"/>
<rect x="182" y="210" width="14" height="14" fill="#F2F5F7"/>
<rect x="196" y="210" width="14" height="14" fill="#F2F5F7"/>
<rect x="210" y="210" width="14" height="14" fill="#F2F5F7"/>
<rect x="224" y="210" width="14" height="14" fill="#F2F5F7"/>
<rect x="238" y="210" width="14" height="14" fill="#242A33"/>
<rect x="252" y="210" width="14" height="14" fill="#15181D"/>
<rect x="14" y="224" width="14" height="14" fill="#15181D"/>
<rect x="28" y="224" width="14" height="14" fill="#242A33"/>
<rect x="42" y="224" width="14" height="14" fill="#F2F5F7"/>
<rect x="56" y="224" width="14" height="14" fill="#F2F5F7"/>
<rect x="70" y="224" width="14" height="14" fill="#F2F5F7"/>
<rect x="84" y="224" width="14" height="14" fill="#F2F5F7"/>
<rect x="98" y="224" width="14" height="14" fill="#F2F5F7"/>
<rect x="112" y="224" width="14" height="14" fill="#F2F5F7"/>
<rect x="126" y="224" width="14" height="14" fill="#F2F5F7"/>
<rect x="140" y="224" width="14" height="14" fill="#F2F5F7"/>
<rect x="154" y="224" width="14" height="14" fill="#F2F5F7"/>
<rect x="168" y="224" width="14" height="14" fill="#242A33"/>
<rect x="182" y="224" width="14" height="14" fill="#242A33"/>
<rect x="196" y="224" width="14" height="14" fill="#F2F5F7"/>
<rect x="210" y="224" width="14" height="14" fill="#F2F5F7"/>
<rect x="224" y="224" width="14" height="14" fill="#F2F5F7"/>
<rect x="238" y="224" width="14" height="14" fill="#242A33"/>
<rect x="252" y="224" width="14" height="14" fill="#15181D"/>
<rect x="14" y="238" width="14" height="14" fill="#15181D"/>
<rect x="28" y="238" width="14" height="14" fill="#242A33"/>
<rect x="42" y="238" width="14" height="14" fill="#F2F5F7"/>
<rect x="56" y="238" width="14" height="14" fill="#F2F5F7"/>
<rect x="70" y="238" width="14" height="14" fill="#F2F5F7"/>
<rect x="84" y="238" width="14" height="14" fill="#F2F5F7"/>
<rect x="98" y="238" width="14" height="14" fill="#F2F5F7"/>
<rect x="112" y="238" width="14" height="14" fill="#F2F5F7"/>
<rect x="126" y="238" width="14" height="14" fill="#F2F5F7"/>
<rect x="140" y="238" width="14" height="14" fill="#F2F5F7"/>
<rect x="154" y="238" width="14" height="14" fill="#F2F5F7"/>
<rect x="168" y="238" width="14" height="14" fill="#242A33"/>
<rect x="182" y="238" width="14" height="14" fill="#242A33"/>
<rect x="196" y="238" width="14" height="14" fill="#F2F5F7"/>
<rect x="210" y="238" width="14" height="14" fill="#F2F5F7"/>
<rect x="224" y="238" width="14" height="14" fill="#F2F5F7"/>
<rect x="238" y="238" width="14" height="14" fill="#242A33"/>
<rect x="252" y="238" width="14" height="14" fill="#15181D"/>
<rect x="14" y="252" width="14" height="14" fill="#15181D"/>
<rect x="28" y="252" width="14" height="14" fill="#242A33"/>
<rect x="42" y="252" width="14" height="14" fill="#242A33"/>
<rect x="56" y="252" width="14" height="14" fill="#F2F5F7"/>
<rect x="70" y="252" width="14" height="14" fill="#F2F5F7"/>
<rect x="84" y="252" width="14" height="14" fill="#F2F5F7"/>
<rect x="98" y="252" width="14" height="14" fill="#F2F5F7"/>
<rect x="112" y="252" width="14" height="14" fill="#F2F5F7"/>
<rect x="126" y="252" width="14" height="14" fill="#F2F5F7"/>
<rect x="140" y="252" width="14" height="14" fill="#F2F5F7"/>
<rect x="154" y="252" width="14" height="14" fill="#F2F5F7"/>
<rect x="168" y="252" width="14" height="14" fill="#F2F5F7"/>
<rect x="182" y="252" width="14" height="14" fill="#F2F5F7"/>
<rect x="196" y="252" width="14" height="14" fill="#F2F5F7"/>
<rect x="210" y="252" width="14" height="14" fill="#F2F5F7"/>
<rect x="224" y="252" width="14" height="14" fill="#242A33"/>
<rect x="238" y="252" width="14" height="14" fill="#242A33"/>
<rect x="252" y="252" width="14" height="14" fill="#15181D"/>
<rect x="28" y="266" width="14" height="14" fill="#15181D"/>
<rect x="42" y="266" width="14" height="14" fill="#242A33"/>
<rect x="56" y="266" width="14" height="14" fill="#242A33"/>
<rect x="70" y="266" width="14" height="14" fill="#242A33"/>
<rect x="84" y="266" width="14" height="14" fill="#F2F5F7"/>
<rect x="98" y="266" width="14" height="14" fill="#F2F5F7"/>
<rect x="112" y="266" width="14" height="14" fill="#F2F5F7"/>
<rect x="126" y="266" width="14" height="14" fill="#F2F5F7"/>
<rect x="140" y="266" width="14" height="14" fill="#F2F5F7"/>
<rect x="154" y="266" width="14" height="14" fill="#F2F5F7"/>
<rect x="168" y="266" width="14" height="14" fill="#F2F5F7"/>
<rect x="182" y="266" width="14" height="14" fill="#F2F5F7"/>
<rect x="196" y="266" width="14" height="14" fill="#242A33"/>
<rect x="210" y="266" width="14" height="14" fill="#242A33"/>
<rect x="224" y="266" width="14" height="14" fill="#242A33"/>
<rect x="238" y="266" width="14" height="14" fill="#15181D"/>
<rect x="42" y="280" width="14" height="14" fill="#15181D"/>
<rect x="56" y="280" width="14" height="14" fill="#15181D"/>
<rect x="70" y="280" width="14" height="14" fill="#242A33"/>
<rect x="84" y="280" width="14" height="14" fill="#242A33"/>
<rect x="98" y="280" width="14" height="14" fill="#242A33"/>
<rect x="112" y="280" width="14" height="14" fill="#242A33"/>
<rect x="126" y="280" width="14" height="14" fill="#242A33"/>
<rect x="140" y="280" width="14" height="14" fill="#242A33"/>
<rect x="154" y="280" width="14" height="14" fill="#242A33"/>
<rect x="168" y="280" width="14" height="14" fill="#242A33"/>
<rect x="182" y="280" width="14" height="14" fill="#242A33"/>
<rect x="196" y="280" width="14" height="14" fill="#242A33"/>
<rect x="210" y="280" width="14" height="14" fill="#15181D"/>
<rect x="224" y="280" width="14" height="14" fill="#15181D"/>
<rect x="56" y="294" width="14" height="14" fill="#E7A23C"/>
<rect x="70" y="294" width="14" height="14" fill="#E7A23C"/>
<rect x="84" y="294" width="14" height="14" fill="#E7A23C"/>
<rect x="98" y="294" width="14" height="14" fill="#E7A23C"/>
<rect x="168" y="294" width="14" height="14" fill="#E7A23C"/>
<rect x="182" y="294" width="14" height="14" fill="#E7A23C"/>
<rect x="196" y="294" width="14" height="14" fill="#E7A23C"/>
<rect x="210" y="294" width="14" height="14" fill="#E7A23C"/>
<rect x="56" y="308" width="14" height="14" fill="#E7A23C"/>
<rect x="70" y="308" width="14" height="14" fill="#E7A23C"/>
<rect x="84" y="308" width="14" height="14" fill="#E7A23C"/>
<rect x="98" y="308" width="14" height="14" fill="#E7A23C"/>
<rect x="168" y="308" width="14" height="14" fill="#E7A23C"/>
<rect x="182" y="308" width="14" height="14" fill="#E7A23C"/>
<rect x="196" y="308" width="14" height="14" fill="#E7A23C"/>
<rect x="210" y="308" width="14" height="14" fill="#E7A23C"/>
<rect x="70" y="322" width="14" height="14" fill="#15181D"/>
<rect x="84" y="322" width="14" height="14" fill="#15181D"/>
<rect x="182" y="322" width="14" height="14" fill="#15181D"/>
<rect x="196" y="322" width="14" height="14" fill="#15181D"/>
</svg>